<?xml version="1.0" encoding="utf-8"?>
<!-- Generator: Adobe Illustrator 24.3.0, SVG Export Plug-In . SVG Version: 6.00 Build 0)  -->
<svg version="1.1" id="Layer_1" xmlns="http://www.w3.org/2000/svg" xmlns:xlink="http://www.w3.org/1999/xlink" x="0px" y="0px"
	 viewBox="0 0 138 54" style="enable-background:new 0 0 138 54;" xml:space="preserve">
<style type="text/css">
	.st0{fill:#FFFFFF;stroke:#231F20;stroke-width:0.5;stroke-linejoin:round;}
	.st1{fill:none;stroke:#231F20;stroke-width:0.5;stroke-linejoin:round;}
	.st2{fill:#231F20;}
</style>
<rect id="rect2" x="3.99" y="7.55" class="st0" width="55.22" height="0.55"/>
<rect id="rect4" x="5.18" y="6.96" class="st0" width="52.83" height="0.57"/>
<polygon id="polygon6" class="st0" points="50.86,5.75 45.73,5.35 16.7,5.35 12.68,5.75 8.3,6.96 54.9,6.96 "/>
<rect id="rect8" x="5.2" y="8.11" class="st0" width="0.63" height="10.04"/>
<rect id="rect10" x="5.25" y="15.37" class="st0" width="52.39" height="0.63"/>
<rect id="rect12" x="8.67" y="8.11" class="st0" width="0.63" height="10.04"/>
<rect id="rect14" x="12.15" y="8.11" class="st0" width="0.63" height="10.04"/>
<rect id="rect16" x="15.63" y="8.11" class="st0" width="0.63" height="10.04"/>
<rect id="rect18" x="19.11" y="8.11" class="st0" width="0.63" height="10.04"/>
<rect id="rect20" x="22.59" y="8.11" class="st0" width="0.63" height="10.04"/>
<rect id="rect22" x="26.07" y="8.11" class="st0" width="0.63" height="10.04"/>
<rect id="rect24" x="39.98" y="8.11" class="st0" width="0.63" height="10.04"/>
<rect id="rect26" x="43.46" y="8.11" class="st0" width="0.63" height="10.04"/>
<rect id="rect28" x="46.93" y="8.11" class="st0" width="0.63" height="10.04"/>
<rect id="rect30" x="50.41" y="8.11" class="st0" width="0.63" height="10.04"/>
<rect id="rect32" x="53.89" y="8.11" class="st0" width="0.63" height="10.04"/>
<rect id="rect34" x="29.54" y="8.11" class="st0" width="0.63" height="10.04"/>
<rect id="rect36" x="33.02" y="8.11" class="st0" width="0.63" height="10.04"/>
<rect id="rect38" x="36.5" y="8.11" class="st0" width="0.63" height="10.04"/>
<rect id="rect40" x="57.37" y="8.11" class="st0" width="0.63" height="10.04"/>
<line id="line42" class="st1" x1="0.1" y1="18.14" x2="63.1" y2="18.14"/>
<path id="path44" class="st2" d="M7.96,21.45c0-0.05,0.04-0.09,0.1-0.09h0.12l2.09,2.22l0,0V21.5c0-0.05,0.04-0.1,0.1-0.1h0.46
	c0.05,0,0.09,0.04,0.1,0.1v3.39c0,0.05-0.04,0.09-0.1,0.09H10.7l-2.1-2.31l0,0v2.16c0,0.05-0.04,0.09-0.09,0.09c0,0,0,0,0,0H8.04
	c-0.05,0-0.09-0.04-0.1-0.09L7.96,21.45z"/>
<path id="path46" class="st2" d="M11.49,24.79l1.56-3.39c0.02-0.03,0.05-0.05,0.09-0.05h0.05c0.04,0,0.07,0.02,0.09,0.05l1.53,3.39
	c0.02,0.05,0,0.1-0.05,0.12c-0.01,0.01-0.03,0.01-0.04,0.01h-0.46c-0.07,0-0.13-0.04-0.15-0.1l-0.22-0.54H12.4l-0.25,0.54
	c-0.02,0.06-0.08,0.1-0.14,0.1h-0.46c-0.05,0-0.08-0.05-0.08-0.09C11.48,24.82,11.48,24.8,11.49,24.79z M13.66,23.73l-0.5-1.11l0,0
	l-0.49,1.11H13.66z"/>
<path id="path48" class="st2" d="M15.66,22.01H14.9c-0.05,0-0.1-0.04-0.1-0.1V21.5c0-0.05,0.04-0.1,0.1-0.1h2.2
	c0.05,0,0.1,0.04,0.1,0.1v0.41c0,0.05-0.04,0.1-0.1,0.1h-0.77v2.82c0,0.05-0.04,0.09-0.1,0.09h-0.46c-0.05,0-0.09-0.04-0.1-0.09
	L15.66,22.01z"/>
<path id="path50" class="st2" d="M17.81,21.5c0-0.05,0.04-0.09,0.1-0.1h0.46c0.05,0,0.09,0.04,0.1,0.1v3.33
	c0,0.05-0.04,0.09-0.1,0.09h-0.46c-0.05,0-0.09-0.04-0.1-0.09V21.5z"/>
<path id="path52" class="st2" d="M21.04,21.35c1.01,0,1.83,0.82,1.83,1.83c0,1.01-0.82,1.83-1.83,1.83s-1.83-0.82-1.83-1.83
	C19.21,22.16,20.03,21.35,21.04,21.35z M21.04,24.31c0.64,0,1.16-0.51,1.16-1.15S21.68,22,21.04,22s-1.16,0.51-1.16,1.15
	c0,0.01,0,0.02,0,0.02C19.89,23.81,20.4,24.32,21.04,24.31L21.04,24.31z"/>
<path id="path54" class="st2" d="M23.6,21.45c0-0.05,0.04-0.09,0.1-0.09h0.13l2.09,2.22l0,0V21.5c0-0.05,0.04-0.1,0.1-0.1h0.46
	c0.05,0,0.09,0.04,0.09,0.1v3.39c0,0.05-0.04,0.09-0.09,0.09l0,0h-0.12l-2.1-2.31l0,0v2.16c0,0.05-0.04,0.09-0.09,0.09c0,0,0,0,0,0
	h-0.46c-0.05,0-0.09-0.04-0.1-0.09L23.6,21.45z"/>
<path id="path56" class="st2" d="M27.14,24.79l1.56-3.39c0.01-0.03,0.05-0.06,0.08-0.05h0.05c0.04,0,0.07,0.02,0.09,0.05l1.55,3.39
	c0.02,0.04,0.01,0.09-0.03,0.12c-0.02,0.01-0.03,0.01-0.05,0.01h-0.46c-0.07,0-0.12-0.04-0.14-0.1l-0.25-0.54h-1.48l-0.25,0.54
	c-0.02,0.06-0.08,0.1-0.15,0.1h-0.46c-0.05-0.01-0.08-0.05-0.07-0.1C27.13,24.81,27.14,24.8,27.14,24.79z M29.31,23.73l-0.5-1.11
	l0,0l-0.49,1.11H29.31z"/>
<path id="path58" class="st2" d="M31.02,21.5c0-0.05,0.04-0.1,0.1-0.1h0.46c0.05,0,0.09,0.04,0.1,0.1v2.82h1.28
	c0.05,0,0.09,0.04,0.1,0.09c0,0,0,0.01,0,0.01v0.42c0,0.05-0.04,0.09-0.09,0.09c0,0,0,0,0,0h-1.83c-0.05,0-0.09-0.04-0.1-0.09
	c0,0,0,0,0,0L31.02,21.5z"/>
<path id="path60" class="st2" d="M34.87,21.5c0-0.05,0.04-0.1,0.1-0.1h0.46c0.05,0,0.09,0.04,0.1,0.1v2.82h1.28
	c0.05,0,0.1,0.04,0.1,0.1v0.42c0,0.05-0.04,0.09-0.09,0.09c0,0,0,0,0,0h-1.83c-0.05,0-0.09-0.04-0.1-0.09c0,0,0,0,0,0L34.87,21.5z"
	/>
<path id="path62" class="st2" d="M37.51,21.5c0-0.05,0.04-0.09,0.1-0.1h0.46c0.05,0,0.09,0.04,0.1,0.1v3.33
	c0,0.05-0.04,0.09-0.1,0.09H37.6c-0.05,0-0.09-0.04-0.1-0.09V21.5z"/>
<path id="path64" class="st2" d="M39.18,21.5c0-0.05,0.04-0.1,0.1-0.1h1.15c0.54-0.04,1.01,0.36,1.06,0.9c0,0,0,0.01,0,0.01
	c-0.02,0.35-0.24,0.65-0.55,0.8c0.37,0.11,0.63,0.44,0.65,0.82c-0.02,0.56-0.5,0.99-1.06,0.97c-0.01,0-0.03,0-0.04,0h-1.22
	c-0.05,0-0.09-0.04-0.1-0.09c0,0,0,0,0,0V21.5z M40.37,22.87c0.24,0,0.43-0.19,0.43-0.43c0-0.01,0-0.02,0-0.03
	c0.01-0.23-0.17-0.42-0.39-0.43c-0.01,0-0.02,0-0.04,0h-0.54v0.88L40.37,22.87z M40.44,24.32c0.25,0,0.46-0.2,0.46-0.46
	c-0.02-0.27-0.24-0.47-0.51-0.46h-0.55v0.91H40.44z"/>
<path id="path66" class="st2" d="M42.38,21.5c0-0.05,0.04-0.1,0.1-0.1h1.43c0.6,0,1.09,0.48,1.1,1.08
	c-0.01,0.46-0.31,0.86-0.74,1.01l0.69,1.28c0.03,0.04,0.02,0.1-0.02,0.13c-0.02,0.01-0.04,0.02-0.06,0.01h-0.53
	c-0.03,0-0.06-0.01-0.08-0.04l-0.67-1.33h-0.55v1.28c0,0.05-0.04,0.09-0.1,0.09h-0.46c-0.05,0-0.09-0.04-0.1-0.09c0,0,0,0,0,0
	L42.38,21.5z M43.86,23.01c0.28-0.01,0.5-0.23,0.5-0.51c-0.01-0.27-0.23-0.49-0.5-0.49h-0.82v1H43.86z"/>
<path id="path68" class="st2" d="M45.37,24.79l1.57-3.39c0.01-0.03,0.05-0.06,0.08-0.05h0.05c0.04,0,0.07,0.02,0.09,0.05l1.55,3.39
	c0.02,0.04,0.01,0.09-0.03,0.12c-0.02,0.01-0.03,0.01-0.05,0.01h-0.46c-0.07,0-0.13-0.04-0.15-0.1l-0.24-0.54h-1.5l-0.25,0.54
	c-0.02,0.06-0.08,0.1-0.15,0.1h-0.46c-0.05-0.02-0.07-0.07-0.06-0.12C45.37,24.8,45.37,24.8,45.37,24.79z M47.55,23.73l-0.5-1.11
	l0,0l-0.49,1.11H47.55z"/>
<path id="path70" class="st2" d="M49.26,21.5c0-0.05,0.04-0.1,0.1-0.1h1.43c0.6,0,1.09,0.48,1.1,1.08
	c-0.01,0.46-0.31,0.86-0.74,1.01l0.69,1.28c0.03,0.04,0.02,0.1-0.02,0.13c-0.02,0.01-0.04,0.02-0.06,0.01h-0.53
	c-0.03,0-0.06-0.01-0.08-0.04l-0.67-1.33h-0.56v1.28c0,0.05-0.04,0.09-0.1,0.09h-0.46c-0.05,0-0.09-0.04-0.1-0.09c0,0,0,0,0,0
	L49.26,21.5z M50.74,23.01c0.28-0.01,0.5-0.23,0.5-0.51c-0.01-0.27-0.23-0.49-0.5-0.49h-0.82v1H50.74z"/>
<path id="path72" class="st2" d="M53.38,23.23l-1.15-1.68c-0.03-0.04-0.02-0.1,0.02-0.13c0.02-0.01,0.04-0.02,0.06-0.02h0.51
	c0.03,0,0.06,0.02,0.08,0.05l0.8,1.16l0.8-1.16c0.02-0.03,0.05-0.04,0.08-0.05h0.52c0.05-0.01,0.1,0.03,0.1,0.08
	c0,0.02,0,0.05-0.02,0.06l-1.16,1.68v1.6c0,0.05-0.04,0.09-0.1,0.09h-0.46c-0.05,0-0.09-0.04-0.1-0.09c0,0,0,0,0,0L53.38,23.23z"/>
</svg>
