<?xml version="1.0" encoding="utf-8"?>
<!-- Generator: Adobe Illustrator 24.3.0, SVG Export Plug-In . SVG Version: 6.00 Build 0)  -->
<svg version="1.1" id="Layer_1" xmlns="http://www.w3.org/2000/svg" xmlns:xlink="http://www.w3.org/1999/xlink" x="0px" y="0px"
	 viewBox="0 0 138 54" style="enable-background:new 0 0 138 54;" xml:space="preserve">
<style type="text/css">
	.st0{fill:#FFFFFF;stroke:#231F20;stroke-width:0.5;stroke-linejoin:round;stroke-miterlimit:10;}
	.st1{fill:none;stroke:#231F20;stroke-width:0.5;stroke-linejoin:round;stroke-miterlimit:10;}
	.st2{fill:#231F20;}
</style>
<g>
	<polyline class="st0" points="24.9,13.23 24.9,1.42 13.28,0.36 8.72,5.42 	"/>
	<polyline class="st0" points="24.9,13.23 24.9,1.42 13.28,0.36 8.72,5.42 	"/>
	<path class="st0" d="M13.28,0.36L8.72,5.42v0.64l2.78-2.81l8.05,0.71l5.36-2.54L13.28,0.36z M15.12,2.02c-1,0-1.81-0.14-1.81-0.31
		c0-0.17,0.81-0.31,1.81-0.31c1,0,1.81,0.14,1.81,0.31C16.93,1.88,16.12,2.02,15.12,2.02"/>
	<path class="st0" d="M13.28,0.36L8.72,5.42v0.64l2.78-2.81l8.05,0.71l5.36-2.54L13.28,0.36z M15.12,2.02c-1,0-1.81-0.14-1.81-0.31
		c0-0.17,0.81-0.31,1.81-0.31c1,0,1.81,0.14,1.81,0.31C16.93,1.88,16.12,2.02,15.12,2.02z"/>
	<path class="st0" d="M13.31,1.72v0.06c0,0.24,0.81,0.44,1.81,0.44c1,0,1.81-0.2,1.81-0.44V1.72"/>
	<polyline class="st0" points="39.55,13.23 40.06,13.23 40.07,2.78 27.01,1.52 27.01,13.22 28.36,13.22 28.36,2.57 	"/>
	<polygon class="st0" points="21.82,3.23 27.01,1.52 27.01,13.22 21.81,13.23 	"/>
	<polyline class="st0" points="26.95,13.22 21.81,13.23 21.82,3.23 27.01,1.52 27.01,13.22 26.95,13.22 	"/>
	<polyline class="st0" points="39.53,13.22 28.32,13.22 28.35,2.55 	"/>
	<path class="st0" d="M39.53,3.66"/>
	<path class="st0" d="M27.58,2.55"/>
	<line class="st0" x1="28.27" y1="11.44" x2="38.82" y2="11.49"/>
	<line class="st0" x1="28.26" y1="9.11" x2="38.75" y2="9.42"/>
	<line class="st0" x1="28.35" y1="6.84" x2="38.81" y2="7.47"/>
	<line class="st0" x1="28.37" y1="4.56" x2="38.78" y2="5.43"/>
	<line class="st0" x1="28.34" y1="2.61" x2="38.75" y2="3.55"/>
	<line class="st0" x1="38.73" y1="3.45" x2="38.73" y2="13.24"/>
	<line class="st0" x1="37.51" y1="3.4" x2="37.51" y2="13.28"/>
	<line class="st0" x1="35.95" y1="3.19" x2="35.95" y2="13.23"/>
	<line class="st0" x1="34.39" y1="3.06" x2="34.39" y2="13.24"/>
	<line class="st0" x1="32.83" y1="2.91" x2="32.83" y2="13.22"/>
	<line class="st0" x1="31.27" y1="2.86" x2="31.27" y2="13.22"/>
	<line class="st0" x1="29.82" y1="2.72" x2="29.82" y2="13.33"/>
	<polygon class="st0" points="7.22,1.91 7.22,13.23 8.72,13.23 8.72,4.08 	"/>
	<polygon class="st0" points="7.22,1.91 7.22,13.23 8.72,13.23 8.72,4.08 	"/>
	<polygon class="st0" points="11.43,2.4 7.22,1.91 8.72,4.08 9.79,4.23 	"/>
	<polygon class="st0" points="11.43,2.4 7.22,1.91 8.72,4.08 9.79,4.23 	"/>
	<polygon class="st0" points="11.5,3.25 11.5,13.23 21.81,13.23 21.81,4.87 19.56,5.6 19.56,3.68 	"/>
	<polygon class="st0" points="11.5,3.25 11.5,13.23 21.81,13.23 21.81,4.87 19.56,5.6 19.56,3.68 	"/>
	<polygon class="st0" points="24.57,13.23 24.57,1.6 19.56,3.96 19.56,5.89 22.67,4.87 22.67,13.23 	"/>
	<polygon class="st0" points="24.9,13.23 24.9,1.44 19.56,3.96 19.56,5.89 22.67,4.87 22.67,13.23 	"/>
	<polygon class="st0" points="11.5,13.21 8.72,13.23 8.72,6.06 11.5,3.25 	"/>
	<polygon class="st0" points="11.5,13.21 8.72,13.23 8.72,6.06 11.5,3.25 	"/>
	<polyline class="st1" points="21.83,7.02 11.51,6.65 8.72,8.26 	"/>
	<path class="st1" d="M21.81,9.08c-0.1,0-10.3-0.18-10.3-0.18L8.72,9.74"/>
	<polyline class="st1" points="19.55,4.82 11.49,4.43 8.7,6.78 	"/>
	<line class="st0" x1="13.21" y1="3.35" x2="13.21" y2="13.25"/>
	<line class="st0" x1="14.87" y1="3.42" x2="14.87" y2="13.23"/>
	<line class="st0" x1="18.45" y1="3.62" x2="18.45" y2="13.23"/>
	<line class="st0" x1="20.12" y1="13.23" x2="20.12" y2="5.7"/>
	<polyline class="st0" points="15.26,11.08 11.49,11.08 8.7,11.24 	"/>
	<line class="st0" x1="21.81" y1="11.08" x2="15.52" y2="11.08"/>
	<polygon class="st0" points="15.46,13.23 15.46,1.42 15.32,1.42 15.02,1.42 14.78,1.41 14.78,13.23 	"/>
	<polygon class="st0" points="15.46,13.23 15.46,1.42 15.32,1.42 15.02,1.42 14.78,1.41 14.78,13.23 	"/>
	<line class="st0" x1="16.74" y1="13.23" x2="16.74" y2="3.55"/>
</g>
<line class="st1" x1="40.06" y1="2.83" x2="38.71" y2="3.58"/>
<line class="st1" x1="28.41" y1="2.66" x2="27.07" y2="1.57"/>
<line class="st1" x1="0.63" y1="13.24" x2="47.46" y2="13.24"/>
<g>
	<g>
		<path class="st2" d="M0.29,15.89c0-0.05,0.04-0.09,0.09-0.09h0.12l2.06,2.18h0.01v-2.04c0-0.05,0.04-0.09,0.09-0.09h0.45
			c0.05,0,0.09,0.04,0.09,0.09v3.33c0,0.05-0.04,0.09-0.09,0.09H3l-2.07-2.27H0.93v2.13c0,0.05-0.04,0.09-0.09,0.09H0.39
			c-0.05,0-0.09-0.04-0.09-0.09V15.89z"/>
		<path class="st2" d="M3.76,19.18l1.54-3.33c0.01-0.03,0.04-0.05,0.08-0.05h0.05c0.05,0,0.07,0.02,0.08,0.05l1.52,3.33
			c0.03,0.06-0.01,0.13-0.08,0.13H6.52c-0.07,0-0.11-0.03-0.14-0.1l-0.24-0.53H4.66l-0.24,0.53c-0.02,0.05-0.06,0.1-0.14,0.1H3.84
			C3.77,19.31,3.73,19.24,3.76,19.18z M5.9,18.13L5.4,17.04H5.39L4.9,18.13H5.9z"/>
		<path class="st2" d="M7.87,16.44H7.11c-0.05,0-0.09-0.04-0.09-0.09v-0.41c0-0.05,0.04-0.09,0.09-0.09h2.16
			c0.05,0,0.09,0.04,0.09,0.09v0.41c0,0.05-0.04,0.09-0.09,0.09H8.51v2.77c0,0.05-0.04,0.09-0.09,0.09H7.96
			c-0.05,0-0.09-0.04-0.09-0.09V16.44z"/>
		<path class="st2" d="M9.98,15.94c0-0.05,0.04-0.09,0.09-0.09h0.46c0.05,0,0.09,0.04,0.09,0.09v3.27c0,0.05-0.04,0.09-0.09,0.09
			h-0.46c-0.05,0-0.09-0.04-0.09-0.09V15.94z"/>
		<path class="st2" d="M13.15,15.8c0.99,0,1.78,0.8,1.78,1.78s-0.79,1.77-1.78,1.77s-1.77-0.79-1.77-1.77S12.16,15.8,13.15,15.8z
			 M13.15,18.71c0.62,0,1.14-0.51,1.14-1.13c0-0.62-0.51-1.14-1.14-1.14c-0.62,0-1.13,0.52-1.13,1.14
			C12.02,18.21,12.53,18.71,13.15,18.71z"/>
		<path class="st2" d="M15.67,15.89c0-0.05,0.04-0.09,0.09-0.09h0.12l2.06,2.18h0.01v-2.04c0-0.05,0.04-0.09,0.09-0.09h0.45
			c0.05,0,0.09,0.04,0.09,0.09v3.33c0,0.05-0.04,0.09-0.09,0.09h-0.12l-2.07-2.27h-0.01v2.13c0,0.05-0.04,0.09-0.09,0.09h-0.45
			c-0.05,0-0.09-0.04-0.09-0.09V15.89z"/>
		<path class="st2" d="M19.14,19.18l1.54-3.33c0.01-0.03,0.04-0.05,0.08-0.05h0.05c0.05,0,0.07,0.02,0.08,0.05l1.52,3.33
			c0.03,0.06-0.01,0.13-0.08,0.13H21.9c-0.07,0-0.11-0.03-0.14-0.1l-0.24-0.53h-1.48l-0.24,0.53c-0.02,0.05-0.06,0.1-0.14,0.1h-0.43
			C19.15,19.31,19.11,19.24,19.14,19.18z M21.27,18.13l-0.49-1.09h-0.01l-0.48,1.09H21.27z"/>
		<path class="st2" d="M22.96,15.94c0-0.05,0.04-0.09,0.09-0.09h0.45c0.05,0,0.09,0.04,0.09,0.09v2.77h1.26
			c0.05,0,0.09,0.04,0.09,0.09v0.41c0,0.05-0.04,0.09-0.09,0.09h-1.81c-0.05,0-0.09-0.04-0.09-0.09V15.94z"/>
		<path class="st2" d="M28.28,15.8c0.44,0,0.87,0.17,1.21,0.46c0.04,0.04,0.04,0.1,0,0.14l-0.31,0.32c-0.04,0.04-0.08,0.04-0.13,0
			c-0.21-0.19-0.47-0.29-0.75-0.29c-0.62,0-1.11,0.53-1.11,1.15c0,0.61,0.49,1.13,1.11,1.13c0.28,0,0.49-0.08,0.59-0.12v-0.42h-0.4
			c-0.05,0-0.09-0.04-0.09-0.09v-0.39c0-0.05,0.04-0.09,0.09-0.09h0.95c0.05,0,0.09,0.04,0.09,0.09v1.26c0,0.04-0.02,0.06-0.04,0.08
			c0,0-0.51,0.32-1.23,0.32c-0.98,0-1.77-0.78-1.77-1.77S27.29,15.8,28.28,15.8z"/>
		<path class="st2" d="M29.92,19.18l1.54-3.33c0.01-0.03,0.04-0.05,0.08-0.05h0.05c0.05,0,0.07,0.02,0.08,0.05l1.52,3.33
			c0.03,0.06-0.01,0.13-0.08,0.13h-0.43c-0.07,0-0.11-0.03-0.14-0.1l-0.24-0.53h-1.48l-0.24,0.53c-0.02,0.05-0.06,0.1-0.14,0.1H30
			C29.93,19.31,29.89,19.24,29.92,19.18z M32.05,18.13l-0.49-1.09h-0.01l-0.48,1.09H32.05z"/>
		<path class="st2" d="M33.74,15.94c0-0.05,0.04-0.09,0.09-0.09h0.45c0.05,0,0.09,0.04,0.09,0.09v2.77h1.26
			c0.05,0,0.09,0.04,0.09,0.09v0.41c0,0.05-0.04,0.09-0.09,0.09h-1.81c-0.05,0-0.09-0.04-0.09-0.09V15.94z"/>
		<path class="st2" d="M36.33,15.94c0-0.05,0.04-0.09,0.09-0.09h0.45c0.05,0,0.09,0.04,0.09,0.09v2.77h1.26
			c0.05,0,0.09,0.04,0.09,0.09v0.41c0,0.05-0.04,0.09-0.09,0.09h-1.81c-0.05,0-0.09-0.04-0.09-0.09V15.94z"/>
		<path class="st2" d="M38.93,15.94c0-0.05,0.04-0.09,0.09-0.09h2.01c0.05,0,0.09,0.04,0.09,0.09v0.41c0,0.05-0.04,0.09-0.09,0.09
			h-1.46v0.81h1.22c0.05,0,0.09,0.04,0.09,0.09v0.41c0,0.05-0.04,0.09-0.09,0.09h-1.22v0.86h1.46c0.05,0,0.09,0.04,0.09,0.09v0.41
			c0,0.05-0.04,0.09-0.09,0.09h-2.01c-0.05,0-0.09-0.04-0.09-0.09V15.94z"/>
		<path class="st2" d="M41.93,15.94c0-0.05,0.04-0.09,0.09-0.09h1.41c0.59,0,1.08,0.47,1.08,1.06c0,0.45-0.3,0.83-0.73,1l0.68,1.25
			c0.03,0.06,0,0.14-0.08,0.14h-0.52c-0.04,0-0.07-0.02-0.08-0.04l-0.66-1.31h-0.55v1.26c0,0.05-0.04,0.09-0.09,0.09h-0.45
			c-0.05,0-0.09-0.04-0.09-0.09V15.94z M43.38,17.43c0.26,0,0.49-0.23,0.49-0.5c0-0.26-0.23-0.48-0.49-0.48h-0.81v0.98H43.38z"/>
		<path class="st2" d="M45.98,17.64l-1.13-1.65c-0.04-0.06,0-0.14,0.08-0.14h0.5c0.04,0,0.06,0.02,0.08,0.04l0.79,1.14l0.79-1.14
			c0.01-0.02,0.04-0.04,0.08-0.04h0.51c0.08,0,0.12,0.08,0.08,0.14l-1.14,1.65v1.58c0,0.05-0.04,0.09-0.09,0.09h-0.45
			c-0.05,0-0.09-0.04-0.09-0.09V17.64z"/>
	</g>
</g>
</svg>
