<?xml version="1.0" encoding="utf-8"?>
<!-- Generator: Adobe Illustrator 24.3.0, SVG Export Plug-In . SVG Version: 6.00 Build 0)  -->
<svg version="1.1" id="Layer_1" xmlns="http://www.w3.org/2000/svg" xmlns:xlink="http://www.w3.org/1999/xlink" x="0px" y="0px"
	 viewBox="0 0 138 54" style="enable-background:new 0 0 138 54;" xml:space="preserve">
<style type="text/css">
	.st0{fill:#FFFFFF;stroke:#231F20;stroke-width:0.5;stroke-miterlimit:3.85;}
	.st1{fill:none;stroke:#231F20;stroke-width:0.5;stroke-linejoin:round;stroke-miterlimit:10;}
	.st2{fill:#231F20;}
</style>
<polygon class="st0" points="28.05,16.97 24.5,16.97 24.5,16.4 28.27,16.4 "/>
<rect x="24.5" y="16.98" class="st0" width="3.15" height="8.16"/>
<rect x="25.5" y="17.88" class="st0" width="1.14" height="2.33"/>
<polygon class="st0" points="4.54,16.97 8.09,16.97 8.09,16.4 4.31,16.4 "/>
<g>
	<rect x="8.08" y="15.78" class="st0" width="16.42" height="11.49"/>
	<polygon class="st0" points="7.3,15.21 7.53,15.78 20.24,15.78 24.94,15.78 25.17,15.21 	"/>
</g>
<rect x="21.79" y="16.7" class="st0" width="1.62" height="2.95"/>
<path class="st0" d="M23.4,23.36h-1.62v-2.09c0-0.45,0.36-0.81,0.81-0.81l0,0c0.45,0,0.81,0.36,0.81,0.81V23.36z"/>
<rect x="9.16" y="16.7" class="st0" width="1.62" height="2.95"/>
<path class="st0" d="M10.77,23.36H9.16v-2.09c0-0.45,0.36-0.81,0.81-0.81h0c0.45,0,0.81,0.36,0.81,0.81L10.77,23.36z"/>
<rect x="4.93" y="16.98" transform="matrix(-1 -1.367605e-10 1.367605e-10 -1 13.0218 42.1103)" class="st0" width="3.15" height="8.16"/>
<rect x="5.94" y="17.88" transform="matrix(-1 -1.339210e-10 1.339210e-10 -1 13.0218 38.0851)" class="st0" width="1.14" height="2.33"/>
<rect x="25.5" y="21.24" class="st0" width="1.14" height="2.33"/>
<rect x="5.94" y="21.24" transform="matrix(-1 -1.323267e-10 1.323267e-10 -1 13.0218 44.8042)" class="st0" width="1.14" height="2.33"/>
<line class="st0" x1="14.15" y1="26.74" x2="18.5" y2="26.74"/>
<polygon class="st0" points="13.06,13.92 14.16,13.92 14.16,12.83 13.19,12.83 13.19,12.54 12.08,12.54 12.08,13.63 13.06,13.63 "/>
<line class="st0" x1="12.21" y1="13.63" x2="12.21" y2="15.2"/>
<polygon class="st0" points="21.25,13.92 22.36,13.92 22.36,12.83 21.38,12.83 21.38,12.54 20.28,12.54 20.28,13.63 21.25,13.63 "/>
<line class="st0" x1="20.4" y1="13.63" x2="20.4" y2="15.2"/>
<g>
	<g>
		<rect x="13.5" y="16.93" class="st0" width="1.14" height="2.33"/>
		<rect x="13.5" y="21.09" class="st0" width="1.14" height="2.33"/>
	</g>
	<g>
		<rect x="15.76" y="16.93" class="st0" width="1.14" height="2.33"/>
		<rect x="15.76" y="21.09" class="st0" width="1.14" height="2.33"/>
	</g>
	<g>
		<rect x="18.02" y="16.93" class="st0" width="1.14" height="2.33"/>
		<rect x="18.02" y="21.09" class="st0" width="1.14" height="2.33"/>
	</g>
</g>
<line class="st0" x1="20.84" y1="20.18" x2="11.82" y2="20.18"/>
<polygon class="st0" points="14.15,25.31 14.15,25.31 14.15,25.31 10.8,23.37 10.79,23.37 4.93,23.37 4.93,24.6 10.47,24.6 
	14.15,26.74 14.15,25.31 14.16,25.31 "/>
<polygon class="st0" points="14.08,26.7 14.11,26.69 14.04,26.67 10.47,24.6 4.93,24.6 4.93,25.12 4.93,26.74 4.93,27.26 
	13.62,27.26 13.95,27.26 13.99,27.26 14.15,27.26 14.15,26.74 "/>
<polygon class="st0" points="18.43,25.31 18.43,25.31 18.43,25.31 21.79,23.37 21.79,23.37 27.65,23.37 27.65,24.6 22.12,24.6 
	18.43,26.74 18.43,25.31 18.43,25.31 "/>
<polygon class="st0" points="18.5,26.7 18.47,26.69 18.54,26.67 22.12,24.6 27.65,24.6 27.65,25.12 27.65,26.74 27.65,27.26 
	18.96,27.26 18.63,27.26 18.6,27.26 18.43,27.26 18.43,26.74 "/>
<polygon class="st0" points="21.38,12.83 21.25,13.63 20.28,13.63 20.28,12.54 21.38,12.54 "/>
<polygon class="st0" points="13.19,12.83 13.06,13.63 12.08,13.63 12.08,12.54 13.19,12.54 "/>
<line class="st1" x1="1" y1="27.3" x2="31.65" y2="27.3"/>
<g>
	<g>
		<path class="st2" d="M3.41,1.09C3.41,1.04,3.46,1,3.51,1h0.13l2.18,2.32h0.01V1.15c0-0.05,0.04-0.1,0.1-0.1h0.48
			c0.05,0,0.1,0.05,0.1,0.1v3.53c0,0.05-0.05,0.09-0.1,0.09H6.29L4.1,2.37H4.09v2.25c0,0.05-0.04,0.1-0.1,0.1H3.51
			c-0.05,0-0.1-0.05-0.1-0.1V1.09z"/>
		<path class="st2" d="M7.09,4.58l1.63-3.53C8.74,1.03,8.76,1,8.81,1h0.05c0.05,0,0.07,0.03,0.09,0.06l1.61,3.53
			c0.03,0.07-0.01,0.14-0.09,0.14h-0.46c-0.08,0-0.11-0.03-0.15-0.1L9.61,4.05H8.05L7.79,4.62c-0.02,0.05-0.07,0.1-0.15,0.1H7.18
			C7.1,4.72,7.06,4.65,7.09,4.58z M9.36,3.47L8.83,2.32H8.82L8.3,3.47H9.36z"/>
		<path class="st2" d="M11.45,1.68h-0.8c-0.06,0-0.1-0.05-0.1-0.1V1.15c0-0.05,0.04-0.1,0.1-0.1h2.29c0.06,0,0.1,0.05,0.1,0.1v0.43
			c0,0.05-0.04,0.1-0.1,0.1h-0.8v2.94c0,0.05-0.05,0.1-0.1,0.1h-0.49c-0.05,0-0.1-0.05-0.1-0.1V1.68z"/>
		<path class="st2" d="M13.68,1.15c0-0.05,0.05-0.1,0.1-0.1h0.49c0.05,0,0.1,0.05,0.1,0.1v3.47c0,0.05-0.05,0.1-0.1,0.1h-0.49
			c-0.05,0-0.1-0.05-0.1-0.1V1.15z"/>
		<path class="st2" d="M17.05,1c1.05,0,1.89,0.84,1.89,1.89s-0.84,1.88-1.89,1.88s-1.88-0.83-1.88-1.88S16,1,17.05,1z M17.05,4.09
			c0.66,0,1.21-0.54,1.21-1.2c0-0.66-0.54-1.21-1.21-1.21c-0.66,0-1.2,0.55-1.2,1.21C15.85,3.55,16.39,4.09,17.05,4.09z"/>
		<path class="st2" d="M19.72,1.09c0-0.05,0.05-0.09,0.1-0.09h0.13l2.18,2.32h0.01V1.15c0-0.05,0.04-0.1,0.1-0.1h0.48
			c0.05,0,0.1,0.05,0.1,0.1v3.53c0,0.05-0.05,0.09-0.1,0.09H22.6L20.4,2.37H20.4v2.25c0,0.05-0.04,0.1-0.1,0.1h-0.48
			c-0.05,0-0.1-0.05-0.1-0.1V1.09z"/>
		<path class="st2" d="M23.4,4.58l1.63-3.53C25.05,1.03,25.07,1,25.12,1h0.05c0.05,0,0.07,0.03,0.09,0.06l1.61,3.53
			c0.03,0.07-0.01,0.14-0.09,0.14h-0.46c-0.08,0-0.11-0.03-0.15-0.1l-0.26-0.57h-1.57L24.1,4.62c-0.02,0.05-0.07,0.1-0.15,0.1h-0.46
			C23.41,4.72,23.37,4.65,23.4,4.58z M25.67,3.47l-0.52-1.15h-0.02l-0.51,1.15H25.67z"/>
		<path class="st2" d="M27.46,1.15c0-0.05,0.04-0.1,0.1-0.1h0.48c0.05,0,0.1,0.05,0.1,0.1v2.94h1.34c0.06,0,0.1,0.05,0.1,0.1v0.43
			c0,0.05-0.04,0.1-0.1,0.1h-1.92c-0.06,0-0.1-0.05-0.1-0.1V1.15z"/>
		<path class="st2" d="M3.11,10.07l1.63-3.53c0.02-0.03,0.04-0.06,0.09-0.06h0.05c0.05,0,0.07,0.03,0.09,0.06l1.61,3.53
			c0.03,0.07-0.01,0.14-0.09,0.14H6.04c-0.08,0-0.11-0.03-0.15-0.1L5.63,9.54H4.06l-0.26,0.57c-0.02,0.05-0.07,0.1-0.15,0.1H3.2
			C3.12,10.21,3.08,10.14,3.11,10.07z M5.37,8.96L4.85,7.8H4.83L4.32,8.96H5.37z"/>
		<path class="st2" d="M7.17,6.64c0-0.05,0.04-0.1,0.1-0.1h1.5c0.63,0,1.14,0.5,1.14,1.13c0,0.48-0.32,0.88-0.78,1.06l0.72,1.33
			c0.04,0.07,0,0.15-0.09,0.15H9.21c-0.05,0-0.07-0.03-0.08-0.05l-0.7-1.39H7.85v1.34c0,0.05-0.05,0.1-0.1,0.1H7.27
			c-0.06,0-0.1-0.05-0.1-0.1V6.64z M8.71,8.21c0.28,0,0.52-0.24,0.52-0.53c0-0.28-0.24-0.51-0.52-0.51H7.85v1.04H8.71z"/>
		<path class="st2" d="M12.39,6.49c0.53,0,0.91,0.17,1.27,0.49c0.05,0.04,0.05,0.1,0.01,0.15l-0.32,0.33
			c-0.04,0.04-0.09,0.04-0.13,0c-0.22-0.19-0.51-0.31-0.81-0.31c-0.67,0-1.17,0.56-1.17,1.22c0,0.66,0.5,1.21,1.17,1.21
			c0.31,0,0.58-0.12,0.8-0.3c0.04-0.04,0.1-0.03,0.13,0l0.32,0.34c0.04,0.04,0.03,0.1-0.01,0.14c-0.36,0.35-0.81,0.51-1.27,0.51
			c-1.05,0-1.89-0.83-1.89-1.88S11.34,6.49,12.39,6.49z"/>
		<path class="st2" d="M14.45,6.64c0-0.05,0.05-0.1,0.1-0.1h0.49c0.06,0,0.1,0.05,0.1,0.1v1.39h1.71V6.64c0-0.05,0.04-0.1,0.1-0.1
			h0.48c0.05,0,0.1,0.05,0.1,0.1v3.47c0,0.05-0.05,0.1-0.1,0.1h-0.48c-0.06,0-0.1-0.05-0.1-0.1V8.66h-1.71v1.45
			c0,0.05-0.04,0.1-0.1,0.1h-0.49c-0.05,0-0.1-0.05-0.1-0.1V6.64z"/>
		<path class="st2" d="M18.58,6.64c0-0.05,0.05-0.1,0.1-0.1h0.49c0.05,0,0.1,0.05,0.1,0.1v3.47c0,0.05-0.05,0.1-0.1,0.1h-0.49
			c-0.05,0-0.1-0.05-0.1-0.1V6.64z"/>
		<path class="st2" d="M19.85,6.68c-0.03-0.07,0.01-0.14,0.09-0.14h0.53c0.05,0,0.08,0.03,0.09,0.06l1.01,2.25h0.04l1.01-2.25
			c0.01-0.03,0.04-0.06,0.09-0.06h0.53c0.08,0,0.12,0.07,0.09,0.14L21.7,10.2c-0.02,0.03-0.04,0.06-0.09,0.06h-0.05
			c-0.05,0-0.07-0.03-0.09-0.06L19.85,6.68z"/>
		<path class="st2" d="M23.91,6.64c0-0.05,0.04-0.1,0.1-0.1h2.13c0.06,0,0.1,0.05,0.1,0.1v0.43c0,0.05-0.04,0.1-0.1,0.1h-1.55v0.86
			h1.29c0.05,0,0.1,0.05,0.1,0.1v0.43c0,0.06-0.05,0.1-0.1,0.1h-1.29v0.92h1.55c0.06,0,0.1,0.05,0.1,0.1v0.43
			c0,0.05-0.04,0.1-0.1,0.1H24c-0.06,0-0.1-0.05-0.1-0.1V6.64z"/>
		<path class="st2" d="M26.88,9.7l0.19-0.32c0.04-0.07,0.13-0.07,0.18-0.04c0.03,0.02,0.45,0.32,0.79,0.32
			c0.27,0,0.48-0.18,0.48-0.4c0-0.27-0.23-0.45-0.67-0.63c-0.49-0.2-0.99-0.51-0.99-1.13c0-0.47,0.35-1.01,1.18-1.01
			c0.53,0,0.94,0.27,1.05,0.35c0.05,0.03,0.07,0.12,0.03,0.17l-0.2,0.3c-0.04,0.06-0.12,0.1-0.18,0.06
			c-0.04-0.03-0.44-0.29-0.73-0.29c-0.3,0-0.46,0.2-0.46,0.37c0,0.25,0.19,0.41,0.62,0.59c0.51,0.2,1.09,0.51,1.09,1.18
			c0,0.54-0.47,1.04-1.21,1.04c-0.66,0-1.05-0.31-1.15-0.41C26.85,9.81,26.83,9.78,26.88,9.7z"/>
	</g>
</g>
</svg>
